<svg width="198" height="34" viewBox="0 0 198 34" fill="none" xmlns="http://www.w3.org/2000/svg">
<path d="M15.812 0C26.0948 0 33.9953 6.79857 33.9953 16.8877C33.9953 26.9768 26.0911 34 15.812 34H4.25637C1.93336 33.9893 0 32.5027 0 29.9002V4.23173C0 1.64706 1.93336 0 4.25637 0H15.812Z" fill="#FF4E00"/>
<path d="M15.812 0C26.0948 0 33.9953 6.79857 33.9953 16.8877C33.9953 26.9768 26.0911 34 15.812 34H4.25637C1.93336 33.9893 0 32.5027 0 29.9002V4.23173C0 1.64706 1.93336 0 4.25637 0H15.812Z" fill="#FF4E00"/>
<path d="M27.6423 13.2229C27.5866 13.6472 27.0894 13.6472 26.8667 13.2764C26.1468 12.1071 25.208 11.8967 23.7162 11.7898C22.6029 11.7363 21.2856 11.8432 20.0684 11.8432C20.003 11.8503 19.9373 11.832 19.8858 11.7926C19.8343 11.7532 19.8012 11.6957 19.7938 11.6329V11.6329C20.0164 10.624 20.9071 8.78085 21.8385 8.60616C22.2652 8.54912 23.2746 8.45286 23.8275 8.45286C26.3695 8.45286 27.7536 11.2693 27.6423 13.2336V13.2229ZM13.2701 22.8593C15.143 23.3374 17.0848 23.5168 19.0182 23.3905C21.5515 23.2262 24.0025 22.4593 26.1505 21.1587C25.3193 23.1837 22.1687 24.4422 19.1815 24.7595C19.1815 24.9199 19.1258 25.0233 19.1258 25.1837C21.3932 25.0767 23.5492 24.3352 24.5437 23.6971C23.9908 25.6614 21.2262 26.46 18.6842 26.6169C18.6212 26.7634 18.5468 26.9053 18.4616 27.0411C19.7163 27.0586 20.9668 26.8976 22.1725 26.5634C21.0072 28.6382 16.031 30.0714 11.8303 28.1748C12.7049 26.5254 13.195 24.7127 13.2664 22.8628L13.2701 22.8593ZM27.145 8.72024C26.6802 8.29763 26.1332 7.96735 25.5352 7.74833C24.9373 7.52931 24.3002 7.42587 23.6605 7.44395C22.0018 7.44395 20.6213 7.86819 18.5729 7.92167C17.1925 7.97514 15.9196 5.06962 14.2609 4.68103C13.5447 3.13379 11.8748 2.91988 10.8914 3.71846C9.95256 3.18726 8.51274 3.45464 8.46079 4.46356C7.41061 4.14627 6.03017 4.67746 6.63504 6.05714C4.03743 6.11062 3.59583 8.34235 5.30655 8.55268C3.0392 9.7755 4.08938 11.9003 5.97079 11.4725C6.30848 14.6596 7.79283 18.7915 5.36221 19.8112C5.0876 19.9181 3.98177 20.1677 1.8777 19.7042C1.26912 19.5438 0.604872 19.3869 0 19.2265V20.8735C1.82204 21.2871 3.64408 21.6186 4.82413 21.5117C8.03033 21.1944 8.19732 18.6596 8.03033 16.4136C7.86334 14.1677 7.08776 11.6864 7.36237 9.87889L7.25104 9.77194C6.08954 10.9484 5.31768 10.624 5.19522 10.2532C5.02823 9.50812 6.41239 8.55268 7.18425 8.23539C7.18425 8.18192 7.23991 8.12844 7.23991 8.07497C6.52 8.18192 5.63681 8.07497 5.58115 7.59725C5.52549 7.01258 6.79832 6.42791 8.45708 6.58833C8.51274 6.58833 8.51274 6.53486 8.5684 6.53486L8.23814 6.37443C7.79654 6.16053 7.68522 5.78976 7.86705 5.57942C7.99249 5.44973 8.14772 5.34997 8.32038 5.28807C8.49303 5.22618 8.67835 5.20387 8.86156 5.22291C9.37384 5.22911 9.87923 5.33714 10.3459 5.54021C10.4016 5.54021 10.4016 5.48673 10.4572 5.48673C10.3345 5.39387 10.2236 5.28736 10.127 5.16944C10.0633 5.09187 10.0316 4.99454 10.0377 4.89595C10.0439 4.79736 10.0875 4.70438 10.1604 4.63468C10.3772 4.53221 10.6221 4.49773 10.8605 4.53611C11.0988 4.57449 11.3186 4.68378 11.4889 4.84858L11.7635 5.1124C11.7937 5.11602 11.8244 5.1131 11.8533 5.10384C11.8822 5.09459 11.9085 5.07924 11.9305 5.05892C11.8331 4.96252 11.774 4.83636 11.7635 4.70242C11.7472 4.66357 11.7391 4.62203 11.7397 4.58017C11.7402 4.53832 11.7494 4.49698 11.7666 4.45854C11.7839 4.4201 11.8089 4.38531 11.8402 4.35619C11.8715 4.32708 11.9085 4.30419 11.949 4.28887H11.9861C12.1115 4.26788 12.2405 4.28153 12.3581 4.32823C12.4757 4.37494 12.577 4.45278 12.6504 4.55268C12.7943 4.75379 12.908 4.97343 12.9881 5.20509C11.8265 5.31204 10.4461 5.73628 9.61487 6.85215C9.16983 7.48338 8.87895 8.20304 8.76393 8.95739C8.64891 9.71174 8.71273 10.4813 8.95062 11.2087C9.28089 12.8557 9.94514 14.3958 10.5537 15.9894V16.0429C11.8748 19.7042 14.4279 28.7309 2.10035 33.5117C2.73959 33.8067 3.43619 33.9694 4.14504 33.9894H5.41787C7.55974 32.9521 9.43064 31.4642 10.8914 29.6365C16.5319 32.0251 21.6529 30.8058 23.8795 26.8735C24.5632 26.4547 25.1401 25.8934 25.5673 25.2312C25.9945 24.569 26.261 23.8229 26.3472 23.0482C26.7523 22.5751 27.0382 22.0184 27.1823 21.4216C27.3265 20.8249 27.3252 20.2041 27.1784 19.6079C27.1228 19.394 26.9038 19.394 26.5698 19.5545C21.9832 22.2104 17.9458 22.6347 13.1365 21.255C13.0084 19.8088 12.7866 18.3716 12.4722 16.952C12.3609 15.0946 12.9695 14.189 16.5097 15.3049C18.8327 15.8896 19.8829 16.8985 20.7104 17.4439C21.0815 17.7078 21.5936 18.0286 21.8719 17.8005C21.9645 17.6901 22.0321 17.5624 22.0704 17.4255C22.1088 17.2886 22.117 17.1456 22.0945 17.0054C22.0389 15.9965 21.5416 14.296 21.1 13.6579C22.1494 13.6029 23.2011 13.6029 24.2505 13.6579C25.579 13.8718 25.6867 14.5598 25.8536 14.8272C26.2247 15.8967 28.3956 15.6222 28.5626 14.7202C28.8928 12.8628 29.0042 10.4172 27.1265 8.72024H27.145ZM2.59761 24.6418C1.73262 24.5887 0.864988 24.5887 0 24.6418L0 25.7577C1.48435 25.4404 2.43062 25.28 2.43062 25.28L2.59761 24.6418Z" fill="black"/>
<path d="M16.4217 13.0126C14.4883 12.5883 12.3397 12.0571 11.2264 10.4635C11.2264 10.4101 11.1708 10.4101 11.1151 10.4101C11.1003 10.4101 11.0862 10.4157 11.0757 10.4257C11.0653 10.4358 11.0594 10.4494 11.0594 10.4635C11.0513 10.5548 11.0706 10.6464 11.1151 10.7274L10.9481 10.7808C10.6735 10.3566 10.577 9.87887 10.8925 9.50454C11.334 8.97335 12.1653 9.02682 12.7182 9.34411L12.6625 9.52236C12.4035 9.44989 12.1266 9.46243 11.8758 9.55802C11.8404 9.57504 11.8089 9.59862 11.783 9.62738C11.7571 9.65615 11.7374 9.68955 11.725 9.72565C11.7126 9.76176 11.7077 9.79986 11.7107 9.83778C11.7136 9.8757 11.7244 9.91268 11.7422 9.94661L11.7645 9.98226C12.7034 11.6828 15.4754 12.0536 18.7298 11.7897C18.7805 11.7968 18.8321 11.7942 18.8818 11.7821C18.9314 11.7699 18.9781 11.7485 19.0191 11.7191C19.0601 11.6896 19.0947 11.6526 19.1208 11.6103C19.1469 11.568 19.1641 11.5212 19.1714 11.4725C19.4146 10.4172 19.9491 9.44432 20.7188 8.65605C20.1891 8.73933 19.6524 8.77514 19.1157 8.76301C17.457 8.86996 16.4625 8.65605 16.1842 8.44572L16.2398 8.28529C16.2968 8.31493 16.3606 8.33045 16.4254 8.33045C16.4902 8.33045 16.5539 8.31493 16.6109 8.28529C16.6147 8.25625 16.6116 8.22677 16.602 8.19901C16.5924 8.17125 16.5764 8.14592 16.5552 8.12486C16.2435 7.84322 14.8037 6.4172 14.8037 6.4172C14.6367 5.19438 12.8147 5.19438 12.0948 6.36372L11.8758 6.31381C11.9232 6.08593 12.0165 5.86915 12.1504 5.67566C10.6661 5.99295 9.77177 7.32272 9.60849 8.52771C8.94424 13.9466 17.5126 12.6703 19.947 14.8486C20.0026 14.902 20.114 15.0625 20.1696 14.9555C20.2253 14.8486 19.1751 13.5758 16.4105 12.9912L16.4217 13.0126ZM13.4418 6.51345C13.8129 6.4065 14.4363 6.77727 14.7147 7.36194C14.993 7.94661 14.9373 8.53128 14.5477 8.68814C14.158 8.845 13.5457 8.45285 13.2674 7.84322C13.2117 7.73627 13.2117 7.68279 13.1561 7.57941H13.2117C13.2573 7.62834 13.3161 7.66423 13.3816 7.6831C13.4471 7.70197 13.5167 7.7031 13.5828 7.68636C13.7498 7.57941 13.6942 7.36907 13.5828 7.15516C13.5484 7.06731 13.4885 6.99076 13.4103 6.93454C13.332 6.87832 13.2387 6.84478 13.1412 6.83787L13.0856 6.7844C13.1662 6.66711 13.2811 6.57532 13.4158 6.52058" fill="white"/>
<path d="M26.1474 21.137C23.9993 22.4376 21.5483 23.2045 19.0151 23.3688C17.0822 23.4659 15.1451 23.2869 13.2669 22.8376C13.2662 23.3727 13.2102 23.9065 13.0999 24.4311C14.7134 24.7957 16.3632 24.9918 18.0206 25.0158C17.9092 25.6005 17.245 27.7253 15.6419 29.0515C18.6106 29.1584 21.3344 28.0426 22.1656 26.5559C20.9649 26.9123 19.7107 27.0738 18.4547 27.0336C18.5104 26.8732 18.6217 26.7698 18.6774 26.6094C21.2193 26.5024 23.9839 25.7074 24.5369 23.6896C23.5423 24.3278 21.3863 25.0693 19.119 25.1762C19.119 25.0158 19.1746 24.9124 19.1746 24.752C22.1433 24.3955 25.3124 23.1584 26.1399 21.1406" fill="white"/>
<path d="M190.297 16.8127C189.609 16.8195 188.923 16.7331 188.26 16.556L190.253 12.2993L192.245 16.556C191.611 16.7337 190.954 16.8202 190.293 16.8127H190.297ZM197.344 20.0497L192.691 10.3135C192.16 9.24402 191.451 8.78057 190.386 8.78057H190.208C189.095 8.78057 188.39 9.24759 187.859 10.3135L183.206 20.064C182.764 21.0444 183.072 21.8964 184.003 22.2351C184.189 22.3197 184.39 22.3683 184.595 22.3783C184.8 22.3882 185.005 22.3592 185.198 22.293C185.391 22.2268 185.569 22.1246 185.722 21.9924C185.874 21.8601 185.997 21.7003 186.085 21.5221L186.13 21.4223L187.195 19.2832C188.222 19.5927 189.291 19.7513 190.368 19.7538C191.406 19.7753 192.44 19.6245 193.425 19.3082L194.446 21.4472C194.597 21.8178 194.894 22.1156 195.273 22.2754C195.653 22.4352 196.082 22.4438 196.468 22.2993L196.572 22.2565C197.415 21.9 197.767 21.023 197.314 20.0854L197.344 20.0497ZM180.56 19.1905H179.673V10.2351C179.684 9.81776 179.522 9.41328 179.223 9.11049C178.924 8.8077 178.512 8.63134 178.077 8.62014H177.958C177.736 8.61146 177.514 8.6474 177.307 8.72568C177.1 8.80396 176.912 8.92286 176.755 9.0748C176.598 9.22673 176.476 9.40838 176.396 9.60815C176.317 9.80792 176.281 10.0214 176.292 10.2351V19.1692H170.355V10.2351C170.355 9.7945 170.173 9.37194 169.848 9.06038C169.524 8.74882 169.084 8.57379 168.626 8.57379C168.167 8.57379 167.727 8.74882 167.403 9.06038C167.078 9.37194 166.896 9.7945 166.896 10.2351V20.7342C166.885 20.9365 166.915 21.139 166.985 21.3301C167.055 21.5212 167.164 21.6972 167.305 21.8479C167.446 21.9985 167.616 22.121 167.807 22.2083C167.997 22.2955 168.203 22.3458 168.414 22.3563H178.908V23.7823C178.897 23.9844 178.928 24.1865 178.998 24.3772C179.069 24.5679 179.177 24.7434 179.318 24.8937C179.459 25.044 179.63 25.1661 179.82 25.2532C180.01 25.3402 180.216 25.3904 180.426 25.4009H180.593C180.818 25.4156 181.044 25.3839 181.256 25.3078C181.467 25.2317 181.659 25.1129 181.819 24.9596C181.978 24.8062 182.102 24.6218 182.181 24.4188C182.26 24.2157 182.293 23.9987 182.278 23.7823V20.7877C182.278 19.7182 181.614 19.1692 180.593 19.1692L180.56 19.1905ZM163.397 19.1692H162.51V10.2351C162.516 10.0282 162.479 9.82212 162.402 9.62875C162.325 9.43539 162.209 9.2585 162.061 9.10819C161.913 8.95787 161.736 8.83709 161.539 8.75274C161.342 8.66838 161.13 8.62211 160.914 8.61657H160.781C160.556 8.60529 160.332 8.63942 160.122 8.71677C159.913 8.79412 159.722 8.91295 159.563 9.06555C159.405 9.21816 159.281 9.40113 159.2 9.60262C159.12 9.8041 159.084 10.0196 159.096 10.2351V19.1692H153.159V10.2351C153.159 9.7945 152.976 9.37194 152.652 9.06038C152.328 8.74882 151.888 8.57379 151.429 8.57379C150.971 8.57379 150.531 8.74882 150.207 9.06038C149.882 9.37194 149.7 9.7945 149.7 10.2351V20.7342C149.689 20.9365 149.719 21.139 149.789 21.3301C149.859 21.5212 149.968 21.6972 150.109 21.8479C150.25 21.9985 150.42 22.121 150.61 22.2083C150.801 22.2955 151.007 22.3458 151.218 22.3563H161.712V23.7823C161.701 23.9844 161.732 24.1865 161.802 24.3772C161.872 24.5679 161.981 24.7434 162.122 24.8937C162.263 25.044 162.433 25.1661 162.623 25.2532C162.814 25.3402 163.02 25.3904 163.23 25.4009H163.397C163.622 25.4156 163.848 25.3839 164.059 25.3078C164.271 25.2317 164.463 25.1129 164.622 24.9596C164.782 24.8062 164.906 24.6218 164.985 24.4188C165.064 24.2157 165.097 23.9987 165.082 23.7823V20.7877C165.082 19.7182 164.417 19.1692 163.397 19.1692V19.1692ZM144.293 8.73778H144.16C143.139 8.73778 142.475 9.20481 141.766 10.1852L136.189 17.8073V10.3563C136.189 9.93084 136.013 9.52279 135.7 9.22193C135.387 8.92107 134.962 8.75204 134.519 8.75204C134.076 8.75204 133.651 8.92107 133.338 9.22193C133.025 9.52279 132.849 9.93084 132.849 10.3563V10.3563V20.4918C132.832 20.7366 132.87 20.9822 132.96 21.2119C133.049 21.4416 133.189 21.6502 133.37 21.8237C133.551 21.9972 133.768 22.1316 134.007 22.218C134.246 22.3043 134.502 22.3405 134.756 22.3242H134.935C136 22.3242 136.708 21.8144 137.373 20.8768L142.939 13.2547V20.7057C142.939 21.1236 143.112 21.5244 143.419 21.8199C143.727 22.1154 144.144 22.2815 144.579 22.2815C145.014 22.2815 145.431 22.1154 145.739 21.8199C146.047 21.5244 146.219 21.1236 146.219 20.7057V10.5702C146.219 9.46149 145.511 8.73778 144.267 8.73778H144.293ZM127.602 8.73778H118.028C117.803 8.72303 117.577 8.75478 117.365 8.8309C117.154 8.90702 116.962 9.02574 116.802 9.17909C116.643 9.33243 116.519 9.51683 116.44 9.7199C116.361 9.92296 116.328 10.14 116.343 10.3563V20.8733C116.331 21.2906 116.492 21.6955 116.79 21.999C117.089 22.3024 117.501 22.4797 117.935 22.4918H118.072C118.297 22.5031 118.521 22.4689 118.731 22.3916C118.94 22.3143 119.131 22.1954 119.29 22.0428C119.449 21.8902 119.572 21.7072 119.653 21.5058C119.733 21.3043 119.769 21.0888 119.757 20.8733V11.9321H125.873V20.8733C125.863 21.0774 125.896 21.2814 125.968 21.4735C126.041 21.6655 126.152 21.8419 126.296 21.9926C126.44 22.1433 126.613 22.2652 126.806 22.3515C126.999 22.4378 127.207 22.4867 127.42 22.4954H127.602C127.818 22.5054 128.035 22.4744 128.239 22.4041C128.443 22.3338 128.631 22.2255 128.792 22.0854C128.952 21.9454 129.082 21.7764 129.175 21.5879C129.268 21.3995 129.321 21.1954 129.331 20.9873C129.331 20.9351 129.331 20.884 129.331 20.834V10.3135C129.336 10.1108 129.299 9.90913 129.223 9.72003C129.147 9.53093 129.033 9.35811 128.887 9.21144C128.741 9.06478 128.567 8.94714 128.374 8.86526C128.18 8.78338 127.972 8.73885 127.761 8.73422H127.602V8.73778ZM102.85 19.3795C100.59 19.3795 98.9947 17.761 98.9947 15.5471C98.9566 14.5799 99.3198 13.6377 100.005 12.9277C100.689 12.2178 101.639 11.7981 102.646 11.761H102.85C105.11 11.761 106.706 13.3795 106.706 15.5506C106.706 17.7217 105.155 19.3831 102.85 19.3831V19.3795ZM102.85 8.65222C101.918 8.63042 100.991 8.7852 100.121 9.10772C99.2515 9.43025 98.4564 9.91419 97.7814 10.5319C97.1063 11.1497 96.5645 11.8891 96.1869 12.708C95.8093 13.5269 95.6034 14.4092 95.5807 15.3046C95.5807 15.3997 95.5807 15.496 95.5807 15.5934C95.5807 19.597 98.7276 22.5346 102.85 22.5346C104.749 22.5622 106.582 21.8641 107.945 20.5939C109.308 19.3237 110.091 17.5852 110.12 15.761C110.12 15.692 110.12 15.6231 110.12 15.5542C110.075 11.5506 106.929 8.65579 102.85 8.65579V8.65222ZM88.89 19.1727H83.3237C83.6976 18.4407 83.9804 17.6689 84.1661 16.8733C84.3934 15.7642 84.5176 14.638 84.5372 13.5078L84.5817 11.9321H88.9234L88.89 19.1727ZM93.1909 19.1727H92.304V10.3563C92.315 10.1543 92.2845 9.95217 92.2142 9.76148C92.1439 9.5708 92.0351 9.39529 91.8942 9.24498C91.7532 9.09468 91.5828 8.97253 91.3928 8.8855C91.2027 8.79847 90.9966 8.74828 90.7863 8.73778H82.7745C81.8431 8.73778 81.2234 9.33315 81.2234 10.3563V12.4954C81.2565 13.8335 81.1471 15.1715 80.8968 16.4882C80.7354 17.4496 80.3553 18.365 79.7835 19.1692H79.4125C78.2992 19.1692 77.7723 19.8501 77.7723 20.7877V23.8109C77.7612 24.0129 77.7918 24.215 77.8621 24.4057C77.9324 24.5964 78.0412 24.7719 78.1821 24.9222C78.323 25.0725 78.4934 25.1947 78.6835 25.2817C78.8736 25.3687 79.0797 25.4189 79.29 25.4294H79.457C79.6822 25.4442 79.9081 25.4124 80.1194 25.3363C80.3308 25.2602 80.5228 25.1415 80.6824 24.9881C80.842 24.8348 80.9656 24.6504 81.0448 24.4473C81.124 24.2442 81.1571 24.0272 81.1417 23.8109V22.3563H91.4691V23.8037C91.4581 24.0058 91.4886 24.2079 91.5589 24.3986C91.6293 24.5893 91.738 24.7648 91.8789 24.9151C92.0199 25.0654 92.1903 25.1875 92.3804 25.2746C92.5705 25.3616 92.7765 25.4118 92.9868 25.4223H93.1427C93.3679 25.437 93.5938 25.4053 93.8051 25.3292C94.0165 25.253 94.2085 25.1343 94.3681 24.981C94.5277 24.8276 94.6513 24.6432 94.7305 24.4402C94.8097 24.2371 94.8428 24.0201 94.8274 23.8037V20.7877C94.872 19.8501 94.3413 19.1692 93.1872 19.1692L93.1909 19.1727ZM70.1798 19.3831C67.9199 19.3831 66.3242 17.7645 66.3242 15.5506C66.2861 14.5834 66.6493 13.6413 67.3341 12.9313C68.0188 12.2213 68.969 11.8016 69.9757 11.7645H70.1798C72.4397 11.7645 74.0354 13.3831 74.0354 15.5542C74.0354 17.7253 72.5288 19.3866 70.1798 19.3866V19.3831ZM70.1798 8.65579C69.2478 8.63399 68.3205 8.78877 67.4507 9.11129C66.581 9.43381 65.7859 9.91776 65.1108 10.5355C64.4358 11.1532 63.894 11.8927 63.5164 12.7116C63.1388 13.5305 62.9328 14.4128 62.9102 15.3082C62.9102 15.4033 62.9102 15.4995 62.9102 15.597C62.9102 19.6005 66.0533 22.5203 70.1872 22.5203C72.0861 22.5479 73.9187 21.8499 75.282 20.5796C76.6452 19.3094 77.4275 17.571 77.4568 15.7467C77.4568 15.6778 77.4568 15.6088 77.4568 15.5399C77.4568 11.5364 74.31 8.64153 70.1872 8.64153L70.1798 8.65579ZM56.1379 19.1478H50.5716C50.9455 18.4158 51.2282 17.6439 51.4139 16.8483C51.6412 15.7393 51.7654 14.613 51.785 13.4829L51.8295 11.9071H56.1713L56.1379 19.1478ZM60.4388 19.1478H59.5519V10.3563C59.5629 10.1543 59.5323 9.95217 59.462 9.76148C59.3917 9.5708 59.283 9.39529 59.142 9.24498C59.0011 9.09468 58.8307 8.97253 58.6406 8.8855C58.4505 8.79847 58.2444 8.74828 58.0341 8.73778H50.0223C49.0909 8.73778 48.4712 9.33315 48.4712 10.3563V12.4954C48.4712 14.0283 48.4712 15.2191 48.1595 16.4989C47.998 17.4603 47.6179 18.3757 47.0462 19.1799H46.6751C45.5619 19.1799 45.0349 19.8608 45.0349 20.7984V23.8216C45.0243 24.0394 45.062 24.2569 45.1454 24.4597C45.2288 24.6626 45.3562 24.846 45.5189 24.998C45.6817 25.15 45.8762 25.2671 46.0896 25.3415C46.303 25.4158 46.5304 25.4458 46.7568 25.4294C46.982 25.4442 47.2079 25.4124 47.4192 25.3363C47.6306 25.2602 47.8225 25.1415 47.9822 24.9881C48.1418 24.8348 48.2654 24.6504 48.3446 24.4473C48.4238 24.2442 48.4569 24.0272 48.4415 23.8109V22.3563H58.7689V23.8037C58.7579 24.0058 58.7884 24.2079 58.8587 24.3986C58.929 24.5893 59.0378 24.7648 59.1787 24.9151C59.3197 25.0654 59.4901 25.1875 59.6802 25.2746C59.8702 25.3616 60.0763 25.4118 60.2866 25.4223H60.4536C60.6788 25.437 60.9047 25.4053 61.1161 25.3292C61.3274 25.253 61.5194 25.1343 61.679 24.981C61.8386 24.8276 61.9622 24.6432 62.0414 24.4402C62.1207 24.2371 62.1537 24.0201 62.1383 23.8037V20.7877C62.1383 19.8501 61.6077 19.1692 60.4536 19.1692" fill="white"/>
</svg>
