<svg width="15" height="23" viewBox="0 0 15 23" fill="none" xmlns="http://www.w3.org/2000/svg">
<path fill-rule="evenodd" clip-rule="evenodd" d="M10.3506 5.51044C10.3506 2.86628 8.20706 0.722771 5.5629 0.722791C2.91877 0.72281 0.775287 2.86631 0.775287 5.51044L0.775288 15.5222C0.775288 18.9829 3.58076 21.7884 7.04149 21.7884C10.2314 21.7884 12.9122 19.3921 13.2685 16.2221L14.1747 8.1598C14.2338 7.63428 13.8556 7.16037 13.3301 7.1013C12.8046 7.04223 12.3307 7.42037 12.2716 7.94589L11.3654 16.0082C11.118 18.2094 9.25649 19.8733 7.04149 19.8733C4.63842 19.8733 2.69035 17.9253 2.69035 15.5222L2.69035 5.51044C2.69035 3.92396 3.97643 2.63786 5.56291 2.63785C7.14941 2.63784 8.43552 3.92394 8.43552 5.51044L8.43552 15.1389C8.43552 15.9321 7.79247 16.5752 6.99923 16.5752C6.20599 16.5752 5.56294 15.9321 5.56294 15.1389L5.56294 5.93602C5.56294 5.40719 5.13423 4.97849 4.60541 4.97849C4.07658 4.97849 3.64788 5.40719 3.64788 5.93602L3.64788 15.1389C3.64788 16.9898 5.14833 18.4903 6.99923 18.4903C8.85013 18.4903 10.3506 16.9898 10.3506 15.1389L10.3506 5.51044Z" fill="#FF6900" stroke="#1A1A1A" stroke-width="0.558692" stroke-linecap="round"/>
</svg>
