<svg width="10" height="10" viewBox="0 0 10 10" fill="none" xmlns="http://www.w3.org/2000/svg">
<path fill-rule="evenodd" clip-rule="evenodd" d="M9.47588 0.857113C9.86767 1.11064 9.97975 1.63377 9.72623 2.02556L5.60505 8.39427C5.60056 8.4012 5.59605 8.40818 5.5915 8.41522C5.5151 8.53336 5.43008 8.66484 5.34732 8.77049C5.25762 8.88501 5.1037 9.05965 4.85957 9.16848C4.55894 9.30251 4.21796 9.31433 3.90877 9.20143C3.65769 9.10976 3.49205 8.9462 3.39463 8.83816C3.30476 8.7385 3.21084 8.61322 3.12645 8.50065C3.12143 8.49395 3.11643 8.48729 3.11148 8.48069L1.15822 5.87696C0.878176 5.50366 0.953777 4.97403 1.32708 4.69398C1.70037 4.41394 2.23001 4.48954 2.51005 4.86284L4.3179 7.27273L8.30743 1.10746C8.56096 0.715671 9.08409 0.603586 9.47588 0.857113Z" fill="#F9F9F9"/>
</svg>
