<svg width="110" height="14" viewBox="0 0 110 14" fill="none" xmlns="http://www.w3.org/2000/svg">
<path d="M11.1023 8.8098H10.4728V1.98303C10.4728 1.27067 10.0149 0.736403 9.27097 0.736403H3.60538C2.91864 0.736403 2.51804 1.21131 2.51804 1.98303V3.6452C2.51804 4.83246 2.51804 5.78227 2.28913 6.79145C2.11744 7.74126 1.8313 8.39425 1.48793 8.86916H1.20179C0.400598 8.86916 0 9.40343 0 10.1158V12.4903C0 13.3214 0.515054 13.7369 1.20179 13.7369C1.88853 13.7369 2.40359 13.262 2.40359 12.4903V11.3624H9.84326V12.4903C9.84326 13.3214 10.3583 13.7369 11.045 13.7369C11.7318 13.7369 12.2468 13.262 12.2468 12.4903V10.1158C12.3041 9.34406 11.9035 8.8098 11.1023 8.8098ZM8.01195 8.8098H4.00598C4.23489 8.27553 4.4638 7.74126 4.63549 7.0289C4.80717 6.25718 4.8644 5.4261 4.8644 4.41692V3.17029H8.01195V8.8098ZM18.1413 0.617676C15.1655 0.617676 12.8764 2.93284 12.8764 6.01973C12.8764 9.16598 15.1655 11.4218 18.1413 11.4218C21.1172 11.4218 23.4063 9.04725 23.4063 5.96036C23.3491 2.87348 21.06 0.617676 18.1413 0.617676ZM18.1413 8.98789C16.539 8.98789 15.3372 7.74126 15.3372 5.96036C15.3372 4.23883 16.539 2.9922 18.1413 2.9922C19.801 2.9922 20.9455 4.23883 20.9455 5.96036C20.8883 7.74126 19.801 8.98789 18.1413 8.98789ZM34.7375 8.8098H34.108V1.98303C34.108 1.27067 33.6502 0.736403 32.9062 0.736403H27.2406C26.5539 0.736403 26.1533 1.21131 26.1533 1.98303V3.6452C26.1533 4.83246 26.1533 5.78227 25.9244 6.79145C25.7527 7.74126 25.4666 8.39425 25.1232 8.86916H24.8371C24.0359 8.86916 23.6353 9.40343 23.6353 10.1158V12.4903C23.6353 13.3214 24.1503 13.7369 24.8371 13.7369C25.5238 13.7369 26.0388 13.262 26.0388 12.4903V11.3624H33.4785V12.4903C33.4785 13.3214 33.9936 13.7369 34.6803 13.7369C35.3671 13.7369 35.8821 13.262 35.8821 12.4903V10.1158C35.9393 9.34406 35.5387 8.8098 34.7375 8.8098ZM31.6472 8.8098H27.6412C27.8701 8.27553 28.0991 7.74126 28.2707 7.0289C28.4424 6.25718 28.4997 5.4261 28.4997 4.41692V3.17029H31.6472V8.8098ZM41.6622 0.617676C38.6863 0.617676 36.3972 2.93284 36.3972 6.01973C36.3972 9.16598 38.6863 11.4218 41.6622 11.4218C44.638 11.4218 46.9272 9.04725 46.9272 5.96036C46.9272 2.87348 44.638 0.617676 41.6622 0.617676ZM41.6622 8.98789C40.0598 8.98789 38.858 7.74126 38.858 5.96036C38.858 4.23883 40.0598 2.9922 41.6622 2.9922C43.3218 2.9922 44.4663 4.23883 44.4663 5.96036C44.4663 7.74126 43.379 8.98789 41.6622 8.98789ZM59.5746 0.677039H52.65C51.8488 0.677039 51.4482 1.27067 51.4482 1.92367V10.1158C51.4482 10.9469 52.0205 11.3624 52.7072 11.3624C53.3939 11.3624 53.909 10.8875 53.909 10.1158V3.17029H58.3156V10.1158C58.3156 10.9469 58.8879 11.3624 59.5746 11.3624C60.2613 11.3624 60.8336 10.8875 60.8336 10.0564V1.98303C60.7764 1.27067 60.3758 0.677039 59.5746 0.677039ZM71.5925 0.677039H71.4781C70.7341 0.677039 70.2763 1.03322 69.7612 1.80494L65.7552 7.74126V1.92367C65.7552 1.09258 65.2402 0.677039 64.5534 0.677039C63.8667 0.677039 63.3517 1.15194 63.3517 1.92367V9.81897C63.3517 10.6501 63.8667 11.2437 64.7251 11.2437H64.8396C65.6408 11.2437 66.0986 10.8281 66.6137 10.1158L70.6196 4.17947V9.99706C70.6196 10.8281 71.1347 11.2437 71.8214 11.2437C72.5082 11.2437 73.0232 10.7688 73.0232 9.99706V2.16112C73.0232 1.27067 72.5082 0.677039 71.5925 0.677039ZM85.3845 8.8098H84.755V1.8643C84.755 1.03322 84.1827 0.617676 83.496 0.617676C82.8092 0.617676 82.2942 1.09258 82.2942 1.8643V8.8098H78.0021V1.8643C78.0021 1.03322 77.487 0.617676 76.743 0.617676C76.0563 0.617676 75.484 1.09258 75.484 1.8643V10.0564C75.484 10.7688 75.9419 11.3031 76.6858 11.3031H84.1255V12.431C84.1255 13.262 84.6405 13.6776 85.3273 13.6776C86.014 13.6776 86.5291 13.2027 86.5291 12.431V10.0564C86.5863 9.2847 86.1285 8.8098 85.3845 8.8098ZM97.803 8.8098H97.1735V1.8643C97.1735 1.03322 96.6012 0.617676 95.9145 0.617676C95.2278 0.617676 94.7127 1.09258 94.7127 1.8643V8.8098H90.4206V1.8643C90.4206 1.03322 89.9056 0.617676 89.1616 0.617676C88.4748 0.617676 87.9026 1.09258 87.9026 1.8643V10.0564C87.9026 10.7688 88.3604 11.3031 89.1044 11.3031H96.544V12.431C96.544 13.262 97.0591 13.6776 97.7458 13.6776C98.4326 13.6776 98.9476 13.2027 98.9476 12.431V10.0564C99.0048 9.2847 98.547 8.8098 97.803 8.8098ZM109.878 9.52215L106.502 1.92367C106.101 1.09258 105.586 0.736403 104.842 0.736403H104.728C103.926 0.736403 103.411 1.09258 103.011 1.92367L99.6343 9.52215C99.291 10.2939 99.5199 10.9469 100.207 11.1843C100.779 11.4218 101.408 11.3031 101.752 10.5907L102.496 8.92852C103.182 9.16598 104.041 9.2847 104.785 9.2847C105.643 9.2847 106.387 9.16598 107.017 8.92852L107.761 10.5907C108.047 11.3031 108.734 11.4218 109.306 11.2437C109.935 10.9469 110.164 10.2345 109.878 9.52215ZM104.785 6.96954C104.27 6.96954 103.755 6.91017 103.297 6.79145L104.728 3.46711L106.158 6.79145C105.815 6.91017 105.3 6.96954 104.785 6.96954Z" fill="#C2C2C2"/>
</svg>
