<svg width="79" height="9" viewBox="0 0 79 9" fill="none" xmlns="http://www.w3.org/2000/svg">
<path d="M74.5925 5.09852C74.181 5.09852 73.7437 5.04707 73.4094 4.94418L74.5668 2.37174L75.7243 4.94418C75.4156 5.04707 75.0041 5.09852 74.5925 5.09852ZM78.7079 7.05357L76.0072 1.1627C75.6985 0.519593 75.287 0.236625 74.6697 0.236625H74.5668C73.9238 0.236625 73.5122 0.519593 73.2036 1.1627L70.5029 7.05357C70.2457 7.64523 70.4257 8.15972 70.9659 8.36551C71.4546 8.54558 71.9175 8.44268 72.2005 7.87675L72.8178 6.59053C73.3579 6.7706 74.0524 6.8735 74.6697 6.8735C75.3384 6.8735 75.9557 6.7706 76.4445 6.59053L77.036 7.87675C77.2932 8.44268 77.8077 8.54558 78.2706 8.36551C78.7336 8.15972 78.9394 7.59378 78.7079 7.05357ZM68.7024 6.56481H64.5613L68.651 2.88623C69.2425 2.37174 69.474 1.93443 69.474 1.39422V1.31705C69.474 0.648214 69.0625 0.236625 68.3166 0.236625H63.0952C62.4779 0.236625 62.1178 0.673938 62.1178 1.21415C62.1178 1.75436 62.4779 2.14022 63.0952 2.14022H66.9276L62.9666 5.71591C62.195 6.41046 62.0149 6.82205 62.0149 7.33654V7.43943C62.0149 8.10827 62.4522 8.51986 63.1466 8.51986H68.6767C69.294 8.51986 69.6541 8.08254 69.6541 7.56806C69.6798 6.95067 69.3197 6.56481 68.7024 6.56481ZM60.0344 6.56481H55.8933L59.9829 2.88623C60.5745 2.37174 60.806 1.93443 60.806 1.39422V1.31705C60.806 0.648214 60.3945 0.236625 59.6486 0.236625H54.4272C53.8099 0.236625 53.4498 0.673938 53.4498 1.21415C53.4498 1.75436 53.8099 2.14022 54.4272 2.14022H58.2596L54.2986 5.71591C53.527 6.41046 53.3469 6.82205 53.3469 7.33654V7.43943C53.3469 8.10827 53.7842 8.51986 54.4786 8.51986H60.0087C60.626 8.51986 60.9861 8.08254 60.9861 7.56806C61.0375 6.95067 60.6774 6.56481 60.0344 6.56481ZM50.6976 0.133728C50.1318 0.133728 49.6688 0.493868 49.6688 1.13698V7.51661C49.6688 8.13399 50.1318 8.51986 50.6976 8.51986C51.2635 8.51986 51.7265 8.15972 51.7265 7.51661V1.13698C51.7008 0.519593 51.2378 0.133728 50.6976 0.133728ZM45.219 4.17245H42.9041V2.08878H45.219C45.8621 2.08878 46.2222 2.57754 46.2222 3.14347C46.2222 3.70941 45.8621 4.17245 45.219 4.17245ZM45.219 0.210901H41.901C41.3609 0.210901 40.9236 0.571041 40.9236 1.18842V7.54233C40.9236 8.15972 41.3866 8.51986 41.9267 8.51986C42.4669 8.51986 42.9041 8.15972 42.9041 7.54233V6.05032H45.219C47.0195 6.05032 48.1512 4.78983 48.1512 3.11775C48.1255 1.44567 46.9938 0.210901 45.219 0.210901ZM32.8729 6.64198C31.5611 6.64198 30.6352 5.66446 30.6352 4.32679C30.6352 3.01485 31.5868 2.03733 32.8729 2.03733C34.1847 2.03733 35.1106 3.01485 35.1106 4.32679C35.1106 5.66446 34.2361 6.64198 32.8729 6.64198ZM32.8729 0.133728C30.4808 0.133728 28.6546 1.93443 28.6546 4.32679C28.6546 6.74488 30.4808 8.51986 32.8729 8.51986C35.265 8.51986 37.0912 6.69343 37.0912 4.30107C37.0912 1.90871 35.265 0.133728 32.8729 0.133728ZM23.3304 6.53908H21.6328V2.1145H23.3304C24.6936 2.1145 25.6196 2.93768 25.6196 4.30107C25.6196 5.66446 24.7193 6.53908 23.3304 6.53908ZM23.3304 0.210901H20.6297C20.0895 0.210901 19.6265 0.62249 19.6265 1.23987V7.46516C19.6265 8.08254 20.0895 8.44268 20.6297 8.44268H23.3304C25.7482 8.44268 27.5744 6.7706 27.5744 4.30107C27.6001 1.85726 25.7482 0.210901 23.3304 0.210901ZM14.0965 6.64198C12.7847 6.64198 11.8588 5.66446 11.8588 4.32679C11.8588 3.01485 12.8104 2.03733 14.0965 2.03733C15.4083 2.03733 16.3342 3.01485 16.3342 4.32679C16.3342 5.66446 15.4597 6.64198 14.0965 6.64198ZM14.0965 0.133728C11.7044 0.133728 9.87824 1.93443 9.87824 4.32679C9.87824 6.74488 11.7044 8.51986 14.0965 8.51986C16.4886 8.51986 18.3148 6.69343 18.3148 4.30107C18.3148 1.90871 16.4886 0.133728 14.0965 0.133728ZM4.57969 6.53908H2.8821V2.1145H4.57969C5.94291 2.1145 6.86887 2.93768 6.86887 4.30107C6.86887 5.66446 5.94291 6.53908 4.57969 6.53908ZM4.57969 0.210901H1.87898C1.33883 0.210901 0.875854 0.62249 0.875854 1.23987V7.46516C0.875854 8.08254 1.33883 8.44268 1.87898 8.44268H4.57969C6.99748 8.44268 8.82367 6.7706 8.82367 4.30107C8.82367 1.85726 6.97176 0.210901 4.57969 0.210901Z" fill="white"/>
</svg>
