<svg width="53" height="50" viewBox="0 0 53 50" fill="none" xmlns="http://www.w3.org/2000/svg">
<path d="M33.0149 16.4187C33.2689 17.0392 33.8555 17.4597 34.5247 17.5011L51.0517 18.5222C51.6044 18.5564 51.835 19.2454 51.4144 19.6054L38.7939 30.4062C38.2874 30.8397 38.0716 31.5235 38.2375 32.1692L42.3836 48.3065C42.5217 48.8441 41.9344 49.2759 41.4625 48.9838L27.3704 40.2592C26.7984 39.9051 26.0739 39.9107 25.5074 40.2737L11.5552 49.2134C11.0878 49.5129 10.4938 49.0902 10.6237 48.5505L14.5209 32.3549C14.6769 31.7068 14.4506 31.0263 13.9375 30.6007L1.15256 19.9948C0.726446 19.6413 0.946502 18.9489 1.49851 18.9063L18.0093 17.6308C18.6776 17.5792 19.2575 17.1499 19.5021 16.5258L25.571 1.03779C25.7738 0.520187 26.5043 0.514673 26.7149 1.02916L33.0149 16.4187Z" stroke="#FF6900" stroke-width="1.13173"/>
</svg>
