<svg width="46" height="45" viewBox="0 0 46 45" fill="none" xmlns="http://www.w3.org/2000/svg">
<path d="M28.5849 15.1786C28.8063 15.7194 29.3175 16.0859 29.9008 16.122L44.3052 17.012C44.7868 17.0417 44.9879 17.6422 44.6212 17.956L33.6217 27.3696C33.1803 27.7474 32.9921 28.3434 33.1367 28.9061L36.7503 42.9709C36.8707 43.4394 36.3588 43.8158 35.9475 43.5611L23.6654 35.9571C23.1668 35.6485 22.5353 35.6534 22.0416 35.9697L9.8814 43.7613C9.47405 44.0223 8.95636 43.6539 9.06955 43.1835L12.4662 29.068C12.6022 28.5031 12.4049 27.9101 11.9577 27.5391L0.81484 18.2954C0.443452 17.9873 0.635244 17.3838 1.11635 17.3467L15.5065 16.2351C16.089 16.1901 16.5945 15.8159 16.8076 15.272L22.0971 1.77315C22.2738 1.32203 22.9105 1.31722 23.0941 1.76563L28.5849 15.1786Z" fill="#FF4E00" stroke="#FF4E00" stroke-width="0.986378"/>
</svg>
