<svg width="10" height="10" viewBox="0 0 10 10" fill="none" xmlns="http://www.w3.org/2000/svg">
<path fill-rule="evenodd" clip-rule="evenodd" d="M9.55021 0.366306C9.89299 0.588116 9.99105 1.0458 9.76924 1.38858L4.96178 8.81784C4.95726 8.82482 4.95274 8.83181 4.94822 8.83881C4.85686 8.98004 4.7634 9.12454 4.67403 9.23863C4.57846 9.36063 4.42899 9.52712 4.1987 9.62979C3.90646 9.76007 3.57499 9.77156 3.27442 9.66182C3.03758 9.57534 2.87694 9.4196 2.77316 9.3045C2.67611 9.19687 2.57286 9.05919 2.47194 8.92461C2.46695 8.91795 2.46195 8.91129 2.45697 8.90465L0.178438 5.86733C-0.0665682 5.54074 -0.000425923 5.07736 0.326171 4.83235C0.652769 4.58735 1.11615 4.65349 1.36115 4.98009L3.63968 8.0174C3.68305 8.0752 3.68122 8.07526 3.72048 8.0146L8.52794 0.585335C8.74975 0.24256 9.20744 0.144497 9.55021 0.366306Z" fill="#FF6900"/>
</svg>
